<?xml version="1.0" standalone="no"?>
<!DOCTYPE svg PUBLIC "-//W3C//DTD SVG 20010904//EN"
 "http://www.w3.org/TR/2001/REC-SVG-20010904/DTD/svg10.dtd">
<svg version="1.0" xmlns="http://www.w3.org/2000/svg"
 width="1528.000000pt" height="1532.000000pt" viewBox="0 0 1528.000000 1532.000000"
 preserveAspectRatio="xMidYMid meet">
<metadata>
Created by potrace 1.16, written by Peter Selinger 2001-2019
</metadata>
<g transform="translate(0.000000,1532.000000) scale(0.100000,-0.100000)"
fill="#000000" stroke="none">
<path d="M2 11863 c0 -1902 3 -3442 5 -3423 2 19 10 82 18 140 8 63 9 109 4
114 -5 6 -9 23 -9 39 0 23 4 28 16 23 15 -6 16 2 10 69 -6 66 -5 75 10 75 14
0 15 8 9 60 -6 50 -4 60 8 60 17 0 30 60 16 75 -14 14 -11 35 5 35 16 0 28 51
15 65 -14 14 -11 38 5 32 10 -4 15 4 18 29 2 20 0 37 -4 40 -14 9 -8 34 8 34
13 0 15 8 9 50 -6 42 -4 50 9 50 9 0 17 9 18 23 3 42 5 52 17 81 6 16 10 35 7
43 -3 7 -1 13 5 13 8 0 9 15 5 45 -6 37 -5 44 8 39 12 -4 13 2 9 35 -4 32 -2
41 10 41 17 0 30 37 16 46 -14 8 -11 24 4 24 16 0 49 108 36 116 -5 2 1 14 12
25 15 15 18 24 10 32 -15 15 -14 27 2 27 17 0 60 134 52 160 -5 15 -2 20 11
20 13 0 15 6 10 30 -4 23 -2 30 10 30 10 0 14 8 12 23 -1 13 5 32 15 42 10 10
16 24 13 31 -3 8 -1 14 4 14 14 0 30 70 23 99 -5 19 -3 23 9 19 11 -5 14 0 11
17 -4 17 1 24 17 28 15 4 21 11 17 21 -4 9 -3 16 2 16 4 0 14 19 21 43 8 23
18 48 23 54 5 7 7 19 4 28 -4 8 0 18 7 22 24 14 64 109 54 127 -7 12 -5 14 8
9 14 -5 16 -2 12 15 -4 14 -2 22 7 22 7 0 18 15 25 33 14 36 136 282 169 341
13 22 19 46 16 57 -5 14 -2 17 9 13 11 -4 16 0 16 15 0 12 4 21 9 21 17 0 52
71 45 93 -5 16 -3 19 10 14 11 -5 16 -1 16 13 0 11 4 20 9 20 11 0 51 66 51
86 0 8 4 14 9 14 10 0 51 65 51 81 0 5 9 18 21 30 13 13 18 27 14 39 -5 15 -2
18 8 14 18 -6 73 82 68 110 -2 12 1 16 10 11 17 -11 38 21 31 47 -4 16 -1 20
9 16 19 -8 94 98 91 129 -1 17 2 21 15 16 12 -5 15 -2 10 10 -3 9 -2 17 3 17
6 0 10 7 10 16 0 8 5 12 11 9 14 -9 39 26 33 46 -3 11 1 16 12 15 9 0 21 7 28
18 6 10 23 32 37 48 15 17 32 41 40 54 7 14 30 43 52 65 21 23 36 47 33 55 -3
8 1 14 9 14 18 0 57 50 51 66 -3 9 1 11 11 7 11 -4 14 -3 9 5 -8 13 9 34 35
44 21 8 94 97 86 104 -7 7 38 54 51 54 17 0 133 133 128 146 -3 9 1 11 11 7
13 -5 15 -2 10 11 -5 13 -3 17 7 13 11 -4 13 -1 9 10 -5 12 -2 15 10 10 12 -4
14 -2 10 10 -5 12 -2 15 10 10 12 -4 14 -2 10 10 -4 10 -2 14 7 11 17 -5 62
31 54 44 -7 11 22 39 37 36 7 -2 15 6 17 16 5 26 29 49 42 41 6 -4 7 1 3 11
-5 13 -2 16 8 12 18 -7 77 52 71 71 -3 10 0 12 11 8 12 -4 14 -2 10 10 -5 13
-2 15 11 10 14 -6 17 -3 12 9 -5 12 -2 15 10 10 12 -5 15 -2 10 9 -3 10 -2 13
4 10 18 -11 179 134 172 154 -3 8 0 11 7 7 14 -9 91 51 91 71 0 9 6 13 14 10
11 -4 13 -1 9 10 -4 11 -2 14 5 9 15 -9 103 55 97 71 -2 8 2 10 12 6 12 -5 15
-2 10 9 -4 11 -1 14 12 11 11 -3 27 7 44 26 14 17 29 31 33 31 4 0 50 32 101
71 63 47 93 75 89 85 -3 9 1 14 14 14 11 0 20 5 20 11 0 6 6 9 13 6 20 -7 49
13 43 30 -5 11 -1 14 13 10 13 -3 18 -1 14 8 -3 9 2 12 14 9 10 -3 28 4 40 15
12 12 26 21 31 21 5 0 17 9 27 20 10 11 22 20 27 20 20 0 75 46 70 59 -3 10 1
12 16 9 26 -7 58 14 47 32 -5 9 -2 10 13 6 14 -5 28 0 41 13 12 12 26 21 32
21 6 0 9 7 5 15 -4 12 1 15 22 13 33 -2 52 8 52 28 0 8 5 12 10 9 14 -8 90 35
90 52 0 7 6 10 14 7 14 -6 158 71 164 88 2 4 13 8 24 8 14 0 18 5 14 15 -4 12
0 14 21 9 22 -6 25 -4 20 11 -5 13 -3 16 8 11 22 -8 65 11 65 29 0 12 6 15 22
10 17 -6 20 -4 14 10 -5 14 -2 16 20 11 22 -6 25 -4 20 10 -5 13 -2 15 15 11
24 -6 159 51 159 67 0 6 14 12 32 12 17 1 37 9 44 18 6 9 16 16 20 15 20 -4
74 24 74 38 0 11 7 14 27 8 24 -6 25 -5 12 11 -13 16 -12 17 13 11 16 -4 40
-1 60 7 18 8 52 23 76 32 23 10 42 21 42 26 0 4 6 5 14 2 8 -3 23 3 32 15 10
11 21 18 26 15 11 -7 88 18 88 29 0 5 7 7 15 3 8 -3 22 2 31 12 10 9 28 15 41
14 16 -3 23 2 23 13 0 12 5 15 16 11 21 -8 94 12 94 25 0 6 5 7 10 4 16 -10
50 5 50 22 0 11 6 14 26 9 33 -9 94 11 94 30 0 12 8 13 35 8 28 -5 35 -3 35 9
0 12 8 15 35 10 23 -4 35 -2 35 6 0 7 6 11 13 10 30 -4 47 2 47 17 0 12 7 14
29 9 39 -8 121 13 121 32 0 11 3 13 13 5 16 -14 67 -3 67 14 0 16 16 19 24 5
9 -14 46 -1 46 16 0 12 10 14 52 8 45 -6 50 -5 45 9 -6 15 -1 16 38 10 37 -5
45 -4 45 9 0 13 9 15 50 10 30 -3 50 -2 50 4 0 5 8 10 18 10 61 -1 82 4 82 18
0 17 21 20 35 6 15 -14 75 -1 75 16 0 12 10 14 60 8 53 -6 60 -5 60 10 0 16 8
17 70 11 59 -5 70 -4 70 9 0 16 30 20 46 7 15 -14 104 -2 104 14 0 15 40 19
56 6 14 -12 134 -2 134 11 0 14 247 21 750 21 512 0 730 -6 730 -20 0 -14 111
-26 124 -13 15 14 57 11 70 -5 13 -17 83 -28 91 -15 10 15 45 10 45 -7 0 -13
9 -15 65 -9 58 7 65 5 65 -10 0 -16 7 -17 60 -11 49 6 60 4 60 -7 0 -16 58
-29 66 -15 9 14 44 9 44 -6 0 -15 68 -28 76 -14 9 14 24 9 24 -8 0 -14 8 -15
55 -9 49 6 54 5 48 -11 -6 -15 -1 -16 45 -10 41 5 52 4 52 -7 0 -18 41 -30 54
-17 14 14 26 12 26 -4 0 -18 51 -31 60 -15 5 8 14 5 29 -10 15 -15 29 -20 43
-15 12 3 24 1 28 -6 4 -7 21 -13 37 -14 16 -2 35 -6 42 -10 6 -4 25 -5 41 -1
23 5 30 3 30 -9 0 -15 17 -21 48 -17 6 1 12 -3 12 -10 0 -8 12 -10 35 -6 27 5
35 2 35 -10 0 -12 7 -14 35 -9 28 6 35 4 35 -9 0 -13 6 -15 30 -10 22 5 30 3
30 -8 0 -18 241 -101 270 -92 15 5 20 2 20 -10 0 -13 6 -16 25 -13 14 3 25 1
25 -6 0 -6 28 -21 63 -34 66 -25 71 -27 157 -65 30 -13 61 -22 68 -19 6 2 12
0 12 -6 0 -14 50 -33 71 -27 13 4 19 2 19 -8 0 -19 53 -41 79 -32 17 5 20 3
14 -11 -5 -14 -2 -16 20 -10 22 5 25 3 20 -10 -5 -14 -2 -16 20 -10 20 5 27 3
27 -8 0 -17 116 -72 142 -68 11 2 18 -3 18 -12 0 -8 8 -17 19 -21 10 -3 73
-35 139 -70 67 -36 128 -65 136 -65 9 0 16 -4 16 -9 0 -5 26 -24 58 -42 31
-18 71 -41 87 -51 17 -10 41 -24 55 -30 14 -7 27 -15 30 -19 13 -16 49 -27 71
-22 19 5 22 3 12 -7 -10 -11 -6 -18 22 -37 19 -13 39 -23 44 -23 6 0 11 -4 11
-8 0 -12 50 -33 61 -27 5 4 9 -1 9 -9 0 -19 34 -38 54 -30 11 4 15 2 11 -8 -4
-9 21 -32 73 -66 43 -29 81 -52 84 -52 4 0 20 -14 37 -31 19 -18 38 -29 46
-25 9 3 15 0 15 -9 0 -18 57 -58 70 -50 5 3 10 -1 10 -9 0 -19 51 -55 69 -48
10 3 12 0 8 -11 -4 -11 0 -13 15 -9 17 4 20 2 15 -11 -7 -19 27 -42 45 -31 7
5 9 2 5 -9 -4 -11 -2 -14 9 -10 8 3 14 -1 14 -10 0 -20 50 -59 66 -53 8 3 11
-1 7 -10 -4 -10 0 -12 13 -7 14 5 16 3 11 -11 -4 -9 -3 -15 2 -12 5 3 20 0 35
-7 18 -10 22 -17 15 -24 -13 -13 25 -38 41 -28 6 3 7 -1 4 -10 -5 -11 -2 -14
12 -8 13 5 16 3 11 -10 -4 -11 -2 -14 9 -10 7 3 14 0 14 -6 0 -6 7 -11 16 -11
9 0 12 -5 8 -12 -9 -14 86 -100 103 -93 7 2 10 -2 6 -11 -4 -10 0 -12 13 -7
13 5 16 3 12 -8 -4 -9 8 -27 28 -44 19 -17 69 -65 111 -107 42 -43 83 -78 90
-78 7 0 13 -5 13 -12 0 -14 137 -157 144 -150 9 8 38 -27 31 -38 -4 -6 1 -7
11 -3 13 5 16 3 11 -10 -4 -11 -2 -14 9 -10 10 4 12 0 7 -13 -5 -13 -3 -16 10
-11 10 4 14 2 11 -6 -2 -7 6 -24 19 -39 18 -21 26 -25 35 -16 9 9 12 8 12 -5
0 -10 6 -20 14 -23 8 -3 12 -12 9 -20 -3 -8 3 -17 13 -21 29 -11 46 -31 38
-45 -5 -8 -2 -9 10 -5 10 4 15 3 11 -3 -9 -15 35 -72 51 -66 8 3 14 -1 14 -9
0 -8 5 -15 10 -15 6 0 10 -6 8 -12 -4 -22 34 -70 50 -63 9 3 12 0 9 -9 -8 -19
52 -99 69 -92 8 3 14 -1 14 -9 0 -8 4 -15 10 -15 5 0 7 -6 4 -13 -6 -17 33
-67 52 -67 8 0 12 -5 9 -10 -7 -11 12 -45 38 -71 7 -8 19 -24 26 -37 6 -12 19
-22 27 -22 8 0 13 -4 9 -10 -8 -13 17 -50 33 -50 7 0 10 -4 7 -10 -9 -14 58
-108 73 -103 6 3 12 -2 12 -11 0 -9 4 -16 9 -16 5 0 7 -10 3 -22 -5 -21 -4
-22 13 -8 17 14 18 13 11 -14 -6 -23 -4 -27 8 -23 10 4 13 1 10 -8 -8 -19 33
-85 52 -85 9 0 13 -4 9 -9 -6 -11 15 -61 27 -61 4 0 8 -7 8 -15 0 -9 6 -12 15
-9 9 4 15 0 15 -10 0 -9 4 -16 9 -16 9 0 24 -38 22 -57 -3 -21 64 -120 77
-115 9 3 12 -2 10 -14 -5 -22 28 -94 42 -94 6 0 10 -9 10 -21 0 -15 4 -19 16
-15 12 5 15 2 10 -10 -5 -14 216 -477 244 -511 6 -7 10 -16 9 -20 -4 -18 24
-73 37 -73 11 0 13 -7 8 -27 -6 -22 -4 -25 10 -20 14 6 16 3 11 -13 -8 -25 15
-90 32 -90 7 0 10 -7 6 -16 -4 -10 1 -20 11 -26 13 -7 16 -17 11 -35 -5 -20
-3 -24 9 -20 12 5 14 0 9 -23 -4 -24 -2 -30 11 -30 13 0 15 -6 10 -27 -6 -22
-4 -25 11 -20 15 6 16 3 10 -29 -5 -31 -4 -36 10 -30 12 4 14 2 7 -11 -11 -18
-4 -53 9 -53 5 0 9 -13 9 -30 0 -18 5 -30 13 -30 9 0 12 -10 9 -30 -3 -19 0
-30 8 -30 7 0 10 -7 6 -15 -3 -9 3 -24 14 -35 11 -11 15 -22 11 -25 -11 -6 -2
-45 11 -45 5 0 7 -4 3 -9 -8 -15 28 -121 41 -121 9 0 11 -11 7 -35 -5 -28 -2
-35 11 -35 14 0 16 -6 10 -35 -5 -29 -3 -35 11 -35 15 0 17 -6 11 -41 -6 -35
-4 -40 9 -36 16 7 22 -18 7 -27 -13 -8 20 -136 35 -136 15 0 18 -16 4 -24 -13
-9 0 -56 16 -56 11 0 13 -9 7 -45 -5 -38 -4 -45 10 -45 16 0 22 -25 8 -34 -4
-3 -6 -21 -4 -41 3 -27 8 -35 19 -31 12 5 14 -2 8 -44 -6 -43 -5 -50 10 -50
16 0 17 -7 12 -60 -6 -50 -4 -60 9 -60 12 0 14 -10 8 -60 -6 -52 -4 -60 10
-60 17 0 23 -39 7 -56 -13 -15 -1 -94 15 -94 15 0 19 -30 6 -46 -5 -5 -7 -31
-4 -57 3 -38 7 -47 19 -43 13 6 14 -6 8 -87 -6 -81 -4 -95 9 -100 12 -5 16
-20 16 -55 0 -26 -4 -52 -8 -58 -5 -5 -6 -51 -4 -101 3 -71 7 -93 18 -93 12 0
14 -59 14 -370 0 -337 -1 -370 -17 -370 -14 0 -15 -15 -9 -155 6 -132 5 -155
-8 -155 -16 0 -28 -98 -14 -114 4 -6 8 -28 8 -49 0 -30 -3 -38 -14 -34 -11 4
-15 -6 -18 -41 -3 -26 -1 -51 4 -56 13 -16 9 -46 -6 -46 -16 0 -28 -79 -15
-94 5 -6 9 -20 9 -33 0 -17 -4 -21 -17 -16 -14 6 -15 -1 -9 -60 6 -58 4 -67
-10 -67 -14 0 -16 -8 -10 -61 6 -52 5 -61 -7 -56 -11 4 -16 -4 -20 -26 -3 -18
-1 -36 4 -41 14 -16 10 -36 -7 -36 -14 0 -15 -7 -10 -45 6 -36 4 -45 -7 -45
-16 0 -29 -47 -16 -56 12 -7 11 -44 -1 -44 -17 0 -33 -41 -21 -53 15 -15 14
-27 -3 -27 -15 0 -28 -48 -15 -56 14 -8 11 -34 -4 -34 -18 0 -48 -115 -33
-130 8 -8 6 -14 -7 -21 -14 -8 -17 -18 -12 -40 5 -22 3 -29 -8 -29 -17 0 -30
-37 -16 -46 14 -8 11 -24 -5 -24 -12 0 -38 -75 -41 -115 0 -5 -6 -20 -13 -32
-8 -14 -9 -24 -2 -28 16 -10 12 -25 -6 -25 -13 0 -15 -7 -10 -30 4 -22 2 -30
-9 -30 -9 0 -15 -10 -15 -25 0 -14 -5 -25 -11 -25 -8 0 -10 -12 -6 -34 4 -27
2 -34 -8 -30 -11 5 -13 -2 -8 -30 5 -32 3 -36 -12 -30 -15 6 -16 3 -10 -24 6
-28 4 -31 -11 -25 -15 5 -16 2 -11 -25 5 -24 3 -32 -7 -32 -16 0 -29 -27 -20
-41 3 -5 1 -9 -5 -9 -13 0 -34 -67 -27 -85 3 -9 0 -15 -8 -15 -15 0 -36 -49
-36 -81 0 -11 -5 -19 -11 -19 -7 0 -9 -9 -5 -24 4 -17 1 -25 -12 -28 -19 -5
-57 -100 -49 -123 4 -10 1 -12 -10 -8 -13 5 -15 1 -9 -20 4 -19 2 -27 -7 -27
-16 0 -58 -83 -63 -125 -2 -16 -12 -37 -22 -45 -10 -8 -40 -58 -66 -110 -27
-52 -57 -110 -68 -127 -12 -20 -17 -41 -13 -53 5 -15 3 -18 -8 -14 -8 3 -17
-2 -21 -13 -3 -10 -17 -36 -31 -58 -13 -22 -22 -47 -19 -56 3 -12 -1 -16 -13
-15 -11 0 -17 -5 -17 -16 1 -10 -2 -18 -6 -18 -11 0 -50 -67 -50 -86 0 -8 -4
-14 -9 -14 -9 0 -91 -123 -91 -135 0 -3 -9 -15 -20 -27 -11 -12 -20 -28 -20
-35 0 -7 -9 -22 -21 -34 -11 -11 -18 -27 -15 -35 3 -8 -1 -14 -9 -14 -17 0
-39 -36 -30 -50 3 -6 -1 -10 -9 -10 -17 0 -40 -36 -32 -49 3 -5 -3 -11 -14
-14 -11 -3 -23 -13 -27 -24 -3 -10 -10 -20 -13 -23 -22 -16 -110 -151 -105
-160 3 -5 -1 -10 -9 -10 -18 0 -60 -56 -51 -70 3 -5 1 -10 -4 -10 -6 0 -11 -6
-11 -14 0 -8 -7 -13 -16 -12 -9 0 -21 -8 -28 -19 -6 -11 -28 -39 -49 -63 -21
-24 -36 -50 -33 -57 3 -10 0 -12 -11 -8 -12 5 -15 2 -10 -10 4 -11 1 -17 -7
-17 -7 0 -28 -19 -46 -43 -19 -23 -40 -46 -47 -50 -7 -4 -13 -12 -13 -17 0 -4
-25 -34 -55 -66 -31 -32 -54 -63 -51 -70 3 -8 0 -11 -10 -7 -10 4 -12 0 -7
-13 5 -14 3 -16 -11 -11 -10 4 -15 3 -11 -3 7 -12 -12 -33 -37 -43 -10 -3 -18
-13 -18 -22 0 -8 -6 -15 -13 -15 -16 0 -307 -291 -307 -308 0 -6 -7 -12 -15
-12 -9 0 -19 -8 -22 -18 -10 -25 -31 -44 -43 -37 -6 4 -7 -1 -3 -11 5 -13 3
-16 -10 -11 -12 4 -14 2 -10 -10 5 -13 2 -15 -11 -10 -13 5 -17 3 -13 -7 4
-10 1 -13 -8 -10 -8 3 -36 -16 -67 -45 -29 -27 -73 -67 -98 -88 -24 -21 -60
-53 -78 -71 -19 -17 -39 -32 -44 -32 -6 0 -8 -7 -5 -14 4 -10 1 -13 -9 -9 -19
7 -46 -16 -40 -34 3 -7 -1 -13 -9 -13 -8 0 -15 -5 -15 -11 0 -6 -7 -8 -16 -5
-11 4 -15 2 -11 -8 4 -9 1 -13 -7 -10 -16 6 -66 -33 -66 -51 0 -8 -6 -12 -13
-9 -17 6 -67 -33 -67 -52 0 -8 -5 -12 -10 -9 -9 5 -66 -27 -80 -46 -3 -3 -15
-11 -27 -18 -15 -7 -20 -17 -16 -28 5 -13 2 -15 -15 -11 -14 4 -19 2 -15 -7 3
-9 -2 -12 -15 -8 -12 3 -25 -2 -33 -14 -8 -10 -27 -24 -42 -31 -20 -9 -27 -17
-23 -28 5 -12 2 -15 -10 -10 -23 9 -117 -52 -110 -71 4 -10 1 -13 -14 -8 -12
4 -26 -1 -39 -14 -12 -12 -24 -21 -28 -21 -14 0 -143 -82 -143 -91 0 -5 -7 -9
-16 -9 -11 0 -14 -5 -10 -16 5 -13 2 -15 -15 -11 -24 6 -59 -11 -59 -29 0 -8
-9 -10 -22 -6 -21 5 -22 4 -9 -11 12 -15 10 -17 -23 -17 -23 0 -39 -5 -42 -15
-4 -8 -15 -15 -25 -15 -11 0 -19 -7 -19 -16 0 -8 -4 -13 -9 -10 -16 10 -61
-13 -61 -30 0 -10 -5 -14 -15 -10 -16 6 -247 -108 -253 -125 -2 -5 -15 -9 -28
-9 -13 0 -24 -4 -24 -10 0 -5 -7 -10 -15 -10 -26 0 -145 -64 -145 -78 0 -9 -7
-11 -19 -7 -20 6 -71 -13 -71 -27 0 -4 -9 -8 -20 -8 -12 0 -20 -7 -20 -16 0
-12 -7 -15 -26 -11 -19 3 -24 1 -20 -10 5 -12 0 -13 -24 -8 -19 4 -30 3 -30
-4 0 -6 -9 -11 -20 -11 -22 0 -72 -20 -81 -33 -3 -4 -10 -7 -15 -5 -15 4 -84
-23 -84 -33 0 -5 -11 -9 -25 -9 -16 0 -25 -6 -25 -15 0 -11 -7 -14 -25 -9 -19
5 -25 2 -25 -11 0 -13 -6 -15 -32 -10 -26 6 -30 5 -25 -9 5 -13 3 -15 -8 -8
-20 10 -205 -51 -217 -72 -6 -11 -17 -14 -38 -9 -23 4 -30 2 -30 -10 0 -13 -8
-15 -37 -10 -32 5 -36 4 -30 -12 6 -15 3 -16 -28 -11 -28 6 -35 4 -35 -9 0
-13 -7 -15 -35 -9 -29 5 -35 3 -35 -11 0 -14 -6 -16 -40 -10 -32 5 -40 4 -40
-8 0 -12 -8 -14 -35 -10 -28 5 -35 2 -35 -11 0 -14 -6 -16 -35 -10 -19 3 -35
2 -35 -3 0 -4 -19 -9 -42 -9 -23 -1 -44 -7 -46 -13 -2 -6 -8 -9 -13 -6 -17 11
-79 -7 -79 -22 0 -12 -3 -13 -14 -4 -17 14 -76 3 -76 -15 0 -15 -26 -19 -34
-5 -8 13 -56 0 -56 -15 0 -15 -35 -19 -44 -6 -9 14 -66 1 -66 -15 0 -12 -10
-13 -55 -8 -47 6 -55 5 -55 -9 0 -17 -30 -22 -46 -7 -14 13 -74 1 -74 -15 0
-15 -55 -20 -64 -6 -8 14 -76 1 -76 -14 0 -15 -30 -19 -46 -6 -15 14 -104 2
-104 -14 0 -16 -41 -19 -56 -5 -14 15 -134 1 -134 -15 0 -15 -88 -20 -106 -6
-5 4 -39 6 -76 4 -50 -3 -68 -7 -68 -18 0 -11 -22 -14 -113 -14 -63 0 -117 3
-120 6 -3 4 -117 7 -252 7 -135 0 -249 -3 -252 -7 -3 -3 -49 -6 -101 -6 -69 0
-98 4 -106 14 -12 16 -124 28 -132 14 -3 -4 -27 -8 -55 -8 -35 0 -49 4 -49 14
0 16 -119 29 -134 15 -17 -15 -56 -10 -56 6 0 13 -12 14 -80 9 -68 -6 -80 -5
-80 9 0 10 -12 16 -41 19 -22 2 -43 0 -45 -4 -9 -14 -44 -9 -44 6 0 15 -68 28
-76 14 -10 -15 -54 -9 -54 8 0 13 -9 14 -54 9 -45 -6 -54 -4 -60 10 -5 14 -14
16 -51 11 -38 -6 -45 -5 -45 10 0 14 -7 16 -51 10 -43 -6 -51 -5 -46 7 4 11
-3 16 -24 19 -17 3 -32 1 -35 -4 -9 -14 -34 -9 -34 8 0 14 -7 15 -45 10 -36
-6 -45 -4 -45 7 0 16 -45 32 -60 22 -6 -4 -10 -1 -10 6 0 8 -12 10 -40 5 -33
-5 -40 -3 -40 10 0 14 -7 15 -40 10 -32 -5 -40 -3 -40 9 0 13 -7 15 -35 9 -29
-5 -35 -3 -35 11 0 14 -6 16 -35 11 -28 -6 -35 -4 -35 9 0 13 -7 15 -35 9 -29
-5 -35 -3 -35 11 0 13 -6 16 -26 12 -17 -3 -28 0 -31 10 -4 10 -15 13 -34 9
-22 -4 -29 -2 -29 10 0 13 -7 15 -30 10 -23 -4 -30 -2 -30 10 0 13 -7 15 -30
10 -23 -4 -30 -2 -30 10 0 13 -7 15 -37 9 -33 -6 -35 -5 -24 9 12 14 10 15
-18 10 -24 -5 -31 -3 -31 9 0 18 -73 43 -91 31 -6 -3 -17 3 -25 15 -9 12 -20
19 -25 16 -5 -4 -16 1 -25 9 -8 9 -24 16 -34 16 -10 0 -22 5 -25 11 -4 6 -13
8 -21 5 -8 -3 -14 -1 -14 5 0 7 -10 9 -25 5 -18 -5 -25 -2 -25 8 0 19 -56 37
-89 29 -24 -6 -25 -5 -11 12 14 16 13 17 -18 11 -27 -6 -31 -5 -26 8 5 12 0
16 -20 16 -14 0 -26 4 -26 9 0 5 -24 19 -52 31 -29 12 -80 36 -112 51 -33 16
-67 29 -77 29 -9 0 -20 7 -23 16 -3 9 -12 14 -18 12 -7 -3 -19 2 -27 9 -7 8
-26 17 -42 20 -15 3 -30 12 -33 20 -4 8 -13 13 -21 9 -8 -3 -15 -1 -15 5 0 5
-8 13 -17 16 -10 4 -35 17 -56 30 -27 17 -45 21 -65 17 -25 -7 -26 -6 -12 11
14 17 13 18 -14 11 -23 -6 -27 -4 -23 8 5 11 0 16 -13 16 -11 0 -20 4 -20 8 0
16 -78 52 -96 45 -13 -5 -16 -3 -11 10 4 11 1 17 -8 17 -8 0 -24 9 -36 21 -14
14 -27 18 -41 13 -17 -5 -20 -3 -15 10 4 9 2 16 -3 16 -6 0 -31 15 -57 34 -27
18 -64 42 -83 52 -19 10 -43 27 -54 37 -11 9 -28 17 -38 17 -10 0 -18 5 -18
10 0 6 -12 16 -27 23 -16 6 -34 20 -41 29 -7 10 -22 18 -33 18 -10 0 -19 4
-19 10 0 15 -90 72 -105 66 -10 -3 -12 0 -8 11 5 12 1 14 -15 9 -16 -5 -21 -4
-17 6 3 8 -19 30 -51 53 -31 22 -68 50 -82 62 -14 12 -36 27 -50 35 -14 7 -38
26 -54 41 -16 16 -35 27 -43 23 -10 -3 -12 0 -8 11 5 12 2 15 -10 10 -11 -4
-17 -1 -17 8 0 8 -16 27 -36 42 -20 15 -64 52 -97 81 -36 31 -66 51 -75 47 -9
-3 -12 0 -9 9 4 11 1 13 -10 9 -12 -5 -15 -2 -10 10 4 11 2 14 -7 11 -7 -3
-16 3 -18 13 -7 27 -115 116 -129 107 -9 -5 -10 -2 -6 9 4 12 2 14 -10 10 -13
-5 -15 -2 -10 11 4 10 3 15 -3 11 -10 -6 -40 17 -40 30 0 11 -272 285 -283
285 -14 0 -37 27 -37 44 0 9 -9 16 -21 16 -11 0 -17 4 -14 10 3 5 -1 10 -10
10 -12 0 -15 5 -11 16 4 11 2 15 -8 11 -11 -4 -13 -1 -9 10 5 13 2 15 -11 10
-10 -4 -15 -3 -11 4 8 12 -83 120 -106 126 -11 3 -15 11 -12 21 4 10 2 13 -5
8 -13 -8 -45 18 -35 28 5 5 -43 70 -80 108 -7 7 -23 28 -36 46 -12 17 -29 32
-36 32 -9 0 -12 6 -9 15 5 11 2 13 -9 9 -11 -4 -15 0 -14 13 1 19 -109 163
-125 163 -4 0 -8 6 -8 13 0 23 -84 126 -99 121 -9 -3 -11 1 -7 12 6 15 -28 75
-46 82 -4 2 -8 10 -8 17 0 8 -8 20 -18 27 -9 7 -26 30 -36 51 -11 21 -30 49
-43 63 -13 14 -23 31 -23 38 0 7 -8 21 -18 32 -11 11 -21 25 -23 30 -2 6 -26
48 -54 93 -33 53 -55 79 -64 76 -9 -3 -11 0 -7 10 9 23 -33 97 -51 90 -11 -4
-13 -1 -9 10 7 18 -29 95 -44 95 -6 0 -10 9 -10 20 0 13 -5 18 -16 13 -12 -4
-14 0 -8 21 5 22 3 25 -11 20 -14 -6 -16 -3 -11 13 6 18 -31 99 -74 163 -6 8
-13 22 -16 30 -3 8 -28 61 -55 117 -27 57 -49 108 -49 114 0 6 -7 8 -16 5 -13
-5 -15 -1 -9 21 6 24 5 25 -11 12 -15 -12 -16 -11 -9 20 6 29 5 33 -9 28 -13
-5 -15 -3 -7 10 11 20 -16 83 -36 83 -9 0 -11 8 -7 27 6 22 4 25 -10 20 -13
-5 -15 -3 -8 10 11 19 -17 93 -35 93 -7 0 -10 7 -7 15 7 17 -14 85 -26 85 -4
0 -8 6 -7 13 1 36 -4 46 -20 40 -13 -5 -15 -2 -10 11 8 19 -11 96 -23 96 -4 0
-8 6 -7 13 1 32 -4 47 -16 47 -9 0 -12 10 -9 30 3 21 0 30 -10 30 -10 0 -13 9
-10 30 3 22 0 30 -10 30 -11 0 -14 7 -10 25 3 18 0 25 -12 25 -18 0 -22 15 -6
25 13 8 1 35 -16 35 -10 0 -13 7 -8 24 3 14 2 31 -2 38 -5 7 -9 18 -9 23 -2
40 -29 115 -42 115 -12 0 -13 3 -4 14 15 18 4 66 -15 66 -15 0 -19 16 -5 24
13 8 0 56 -15 56 -10 0 -12 8 -7 30 4 23 1 34 -13 45 -14 10 -16 17 -8 25 15
15 5 60 -12 60 -16 0 -18 12 -5 26 11 11 -4 54 -19 54 -6 0 -9 20 -7 48 1 33
-2 46 -10 44 -15 -2 -18 25 -3 30 15 5 0 68 -16 68 -16 0 -19 21 -5 36 14 15
1 76 -15 70 -15 -6 -20 39 -6 48 14 8 1 66 -14 66 -12 0 -13 12 -8 65 6 58 5
65 -11 65 -16 0 -17 7 -11 70 5 60 4 70 -10 70 -13 0 -15 10 -10 63 4 34 0
114 -8 177 -12 100 -14 -343 -15 -3417 l-1 -3533 7640 0 7640 0 0 7660 0 7660
-7640 0 -7640 0 2 -3457z"/>
<path d="M1481 10843 c1 -81 35 -222 78 -325 63 -150 211 -336 366 -459 232
-183 627 -382 1243 -625 266 -105 264 -104 303 -162 49 -72 97 -119 174 -170
104 -69 182 -99 540 -211 55 -17 107 -36 115 -41 45 -29 -259 13 -430 59 -261
71 -381 158 -427 310 -9 31 -19 59 -22 63 -3 4 -68 23 -145 43 -248 64 -721
227 -942 325 -27 12 -58 26 -69 30 -40 17 -271 131 -310 153 -120 68 -287 170
-334 206 -33 25 -57 37 -61 31 -9 -14 14 -137 41 -220 95 -301 340 -488 876
-669 156 -52 220 -72 398 -121 121 -33 359 -95 450 -116 126 -30 179 -50 170
-64 -11 -17 -44 -15 -390 32 -420 56 -992 205 -1173 305 -53 30 -65 23 -57
-31 26 -166 112 -303 245 -392 126 -84 373 -152 740 -203 161 -23 230 -31 365
-41 77 -6 187 -15 245 -20 58 -6 130 -10 161 -10 60 0 93 -20 71 -42 -19 -19
-200 -30 -512 -30 -372 -1 -646 19 -824 58 -38 8 -71 13 -73 10 -10 -10 8 -72
35 -123 35 -67 90 -125 157 -168 133 -86 244 -106 565 -106 230 0 456 20 720
63 106 17 145 16 145 -2 0 -16 -72 -40 -279 -95 -257 -67 -544 -117 -735 -128
-25 -1 -46 -8 -49 -14 -2 -7 22 -39 52 -71 132 -139 342 -183 613 -131 166 32
277 64 547 159 66 23 92 28 100 20 15 -16 -28 -49 -129 -99 -175 -86 -318
-140 -565 -212 -41 -12 -79 -26 -84 -31 -16 -13 44 -67 114 -101 59 -29 73
-32 150 -31 136 3 363 80 628 212 111 56 134 65 142 52 5 -8 10 -17 10 -20 0
-8 -174 -130 -245 -172 -92 -55 -183 -99 -255 -123 -38 -13 -66 -28 -68 -37
-8 -40 154 -95 245 -83 139 17 329 111 490 241 45 37 70 43 80 18 10 -28 -240
-260 -310 -287 -30 -11 -15 -39 28 -54 72 -26 157 -14 260 36 101 49 136 73
215 146 89 83 127 108 145 98 14 -8 7 -23 -45 -100 -33 -50 -94 -123 -135
-162 l-75 -71 25 -16 c38 -25 164 -15 237 18 74 34 125 83 228 217 47 61 91
111 98 111 45 1 -31 -176 -116 -271 -66 -73 -60 -83 40 -74 152 12 259 93 335
251 52 110 77 55 33 -75 -11 -33 -20 -65 -20 -71 0 -20 81 -10 143 19 74 35
102 61 160 150 49 75 83 175 93 272 l7 67 -84 7 c-90 7 -108 12 -236 58 -172
62 -335 186 -427 326 -38 56 -196 398 -258 556 -69 176 -251 389 -435 509
-103 67 -370 202 -538 271 -49 20 -109 45 -132 56 -23 10 -44 19 -48 19 -3 0
-72 29 -153 64 -81 35 -203 88 -272 116 -69 29 -153 65 -188 81 -35 16 -65 29
-67 29 -19 0 -557 265 -689 339 -60 33 -111 61 -113 61 -6 0 -293 179 -343
214 -25 17 -46 34 -48 39 -2 4 -8 7 -13 7 -21 0 -401 301 -453 359 -27 29 -46
27 -45 -6z m1935 -1185 c16 -24 31 -45 34 -48 3 -3 21 -25 40 -49 19 -24 68
-70 110 -103 41 -32 80 -62 86 -67 32 -25 183 -106 274 -146 58 -26 109 -51
115 -56 5 -5 17 -9 26 -9 9 0 22 -7 29 -15 24 -29 -48 -17 -189 31 -296 100
-448 183 -508 276 -49 78 -86 201 -66 221 12 13 20 7 49 -35z m168 -747 c26
-38 160 -136 238 -173 145 -69 311 -117 493 -143 129 -19 147 -23 140 -36 -9
-14 -309 -10 -410 5 -187 30 -331 85 -403 156 -62 60 -128 220 -91 220 8 0 23
-13 33 -29z m353 -507 c120 -58 259 -79 571 -88 62 -2 116 -7 119 -10 21 -21
-43 -37 -231 -61 -275 -34 -532 40 -616 177 -29 47 -37 78 -24 91 4 4 30 -12
58 -34 27 -22 83 -56 123 -75z m104 -260 c51 -26 149 -54 239 -69 98 -17 324
-19 423 -5 83 12 117 1 70 -23 -68 -35 -235 -69 -367 -75 -138 -5 -211 5 -281
41 -82 41 -143 103 -131 133 7 18 10 18 47 -2z m899 -272 c0 -26 -96 -74 -220
-110 -34 -10 -97 -16 -165 -16 -100 -1 -115 1 -170 27 -127 60 -148 128 -24
80 36 -13 81 -16 234 -17 167 0 197 3 250 21 66 23 95 28 95 15z m220 -160 c0
-13 -70 -66 -119 -92 -129 -65 -289 -74 -390 -22 -64 33 -51 42 61 42 133 0
315 32 378 66 28 15 70 18 70 6z"/>
<path d="M2418 10595 c-3 -3 5 -39 18 -80 63 -197 90 -224 361 -356 114 -56
237 -115 273 -132 200 -92 322 -146 470 -207 91 -37 190 -79 220 -93 30 -13
123 -53 205 -87 83 -35 178 -76 212 -91 34 -16 91 -40 125 -55 110 -45 317
-152 391 -201 40 -26 125 -101 192 -168 l121 -122 71 -12 c39 -7 104 -21 143
-30 57 -15 73 -16 77 -5 5 15 -64 155 -114 231 -70 106 -215 216 -378 288 -33
15 -78 35 -101 45 -59 27 -139 58 -224 87 -41 14 -79 29 -85 33 -5 4 -19 10
-30 13 -11 3 -65 22 -120 42 -55 20 -145 52 -200 72 -55 19 -113 41 -130 48
-16 7 -85 34 -151 58 -67 25 -141 54 -165 65 -24 11 -84 37 -134 57 -126 52
-411 192 -530 260 -55 31 -115 66 -134 77 -83 47 -342 235 -356 258 -7 11 -19
13 -27 5z"/>
<path d="M8104 9452 c-124 -91 -253 -297 -254 -407 0 -72 -17 -98 -92 -148
-165 -109 -364 -187 -567 -221 -107 -18 -368 -21 -471 -6 -36 6 -99 15 -140
21 -125 17 -526 112 -585 138 -11 5 -58 24 -105 41 -123 47 -215 97 -281 152
-32 26 -68 48 -80 48 -34 0 -76 -54 -90 -116 -15 -66 -10 -74 71 -99 131 -42
420 -162 588 -245 100 -49 188 -90 195 -90 7 0 17 -4 23 -8 24 -20 246 -75
379 -94 50 -6 185 -12 300 -13 182 0 224 3 316 23 265 57 465 155 741 363 64
49 124 89 133 89 8 0 32 -15 52 -33 85 -76 230 -182 438 -322 121 -81 257
-175 302 -209 46 -34 114 -83 153 -110 38 -27 80 -63 93 -80 52 -70 70 -164
46 -248 -12 -45 -14 -46 -157 -18 -57 11 -196 34 -310 52 -188 29 -229 32
-442 32 -261 1 -311 -7 -525 -81 -109 -38 -292 -128 -340 -167 l-30 -25 27
-27 27 -28 53 37 c64 44 254 138 323 160 161 52 231 61 470 61 245 0 377 -13
610 -60 208 -43 286 -55 305 -49 28 9 50 50 64 119 40 191 -51 309 -434 563
-402 266 -645 437 -655 461 -9 23 12 48 77 95 79 56 107 70 191 97 86 28 157
21 245 -24 l63 -32 -34 -44 c-47 -63 -57 -84 -57 -123 0 -95 116 -88 186 12
16 22 35 43 43 46 14 6 160 -81 167 -100 3 -7 -9 -34 -27 -60 -21 -32 -34 -64
-37 -95 -4 -43 -2 -50 22 -65 51 -34 114 -2 162 83 10 17 24 32 31 32 18 0
141 -82 148 -99 3 -7 -3 -27 -14 -45 -30 -48 -46 -122 -32 -152 28 -61 97 -47
151 31 17 25 38 45 46 45 20 0 118 -68 133 -92 8 -13 5 -29 -16 -70 -14 -29
-28 -73 -31 -99 -4 -39 -1 -50 19 -68 12 -11 32 -21 44 -21 28 0 82 41 112 84
13 20 29 36 35 36 19 0 75 -48 96 -82 31 -51 45 -165 32 -260 -11 -77 -62
-254 -79 -271 -8 -8 -152 30 -304 80 -84 27 -107 25 -107 -7 0 -24 10 -29 150
-70 205 -61 215 -64 218 -87 5 -32 -64 -163 -86 -163 -10 0 -76 14 -148 30
-71 17 -181 42 -244 56 -63 14 -176 38 -250 55 -330 72 -414 88 -560 104 -338
38 -565 -1 -807 -138 -47 -26 -73 -47 -73 -58 0 -17 74 -79 94 -79 5 0 17 6
25 14 9 8 57 35 106 59 169 84 366 111 615 83 146 -17 185 -24 490 -90 91 -19
233 -49 315 -66 83 -17 222 -47 310 -67 88 -20 170 -38 182 -41 30 -6 64 45
148 215 101 205 145 337 145 433 0 21 4 41 10 45 5 3 67 -23 137 -59 121 -60
152 -75 266 -124 54 -24 219 -71 346 -99 46 -10 86 -23 88 -30 3 -7 -4 -52
-16 -100 -55 -235 -101 -564 -101 -723 0 -47 -3 -115 -6 -152 l-7 -67 -51 -10
c-254 -49 -979 -71 -1221 -36 -210 30 -219 30 -330 -7 -55 -18 -102 -38 -103
-43 -8 -21 210 -68 410 -89 200 -22 529 -29 728 -17 330 21 972 116 1455 216
149 31 304 62 345 70 220 41 593 138 785 205 50 17 111 38 137 47 58 20 80 13
76 -24 -4 -36 -60 -74 -163 -113 -162 -62 -940 -242 -1425 -331 -510 -93 -789
-132 -1150 -160 -211 -16 -740 -7 -875 15 -164 26 -453 92 -541 123 -38 13
-50 13 -150 -8 -91 -20 -139 -23 -294 -23 -162 0 -200 3 -310 26 -297 63 -594
175 -821 309 -65 39 -69 40 -205 49 -76 5 -188 14 -249 20 -180 16 -344 29
-440 35 -548 33 -954 93 -1013 147 -20 19 -26 20 -55 10 -17 -6 -54 -13 -81
-16 -28 -4 -54 -12 -58 -19 -5 -6 -7 -139 -6 -295 l3 -284 37 -33 c95 -87 461
-131 1298 -155 212 -6 468 -15 570 -20 102 -4 188 -5 192 -1 4 4 11 86 14 183
5 125 11 178 19 182 23 8 318 -37 525 -81 383 -81 490 -109 845 -224 312 -100
510 -146 757 -175 118 -13 211 -15 528 -11 409 5 568 19 955 82 82 13 200 31
260 40 211 30 551 99 1050 214 328 75 718 187 802 229 107 55 147 122 146 243
-1 98 -29 165 -88 213 -37 30 -44 43 -54 95 -20 101 -75 196 -165 286 -201
199 -484 264 -1156 265 -314 0 -648 30 -880 80 -229 48 -513 165 -722 296 -24
15 -52 49 -79 96 -24 40 -69 98 -101 129 -56 53 -58 58 -58 106 0 39 -5 54
-23 71 -25 24 -76 29 -95 10 -13 -13 -64 11 -129 59 -30 22 -32 27 -27 67 8
52 -6 81 -45 94 -22 8 -36 7 -56 -4 -40 -20 -54 -17 -120 30 l-60 42 0 53 c0
47 -3 56 -30 77 -34 27 -63 30 -91 9 -31 -23 -55 -18 -116 25 -57 41 -57 41
-55 90 2 39 -3 53 -22 74 -32 34 -70 41 -114 20 -36 -17 -37 -17 -104 14 -91
41 -161 59 -259 67 -90 8 -85 6 -239 114 -173 123 -203 132 -271 83z m192
-174 c43 -29 79 -57 81 -63 2 -5 -15 -20 -38 -33 -46 -27 -231 -165 -304 -229
-50 -43 -75 -54 -75 -30 2 63 55 204 111 292 47 74 91 115 124 115 13 0 58
-24 101 -52z m2989 -1637 c50 -5 164 -13 254 -17 l164 -7 37 -33 c21 -19 43
-34 50 -34 8 0 25 14 39 30 l26 31 250 -11 c317 -13 351 -17 510 -67 144 -46
217 -93 299 -195 61 -75 109 -203 88 -234 -24 -37 -223 -102 -532 -174 -342
-81 -731 -166 -910 -200 -91 -17 -185 -35 -210 -40 -25 -5 -100 -19 -167 -30
-67 -11 -129 -23 -136 -26 -8 -3 -22 3 -32 13 -16 16 -17 33 -11 193 10 268
34 449 86 655 41 160 44 168 78 161 15 -3 68 -10 117 -15z"/>
<path d="M11223 7530 c-13 -5 -23 -16 -23 -24 0 -8 -2 -21 -5 -28 -7 -16 30
-58 50 -58 23 0 55 37 55 63 0 24 -28 58 -46 56 -5 0 -19 -4 -31 -9z"/>
<path d="M11992 7528 c-18 -18 -14 -63 8 -83 42 -38 102 13 80 70 -8 20 -16
25 -43 25 -18 0 -38 -5 -45 -12z"/>
<path d="M12290 7521 c-5 -11 -10 -29 -10 -40 0 -22 35 -51 61 -51 38 0 65 70
37 98 -20 20 -76 15 -88 -7z"/>
<path d="M11732 7438 c-51 -25 -30 -108 28 -108 37 0 60 23 60 60 0 22 -7 33
-30 45 -16 8 -30 15 -32 14 -2 0 -13 -5 -26 -11z"/>
<path d="M12575 7378 c-21 -52 7 -87 60 -74 64 16 45 105 -23 106 -16 0 -27
-9 -37 -32z"/>
<path d="M11193 7290 c-61 -25 -44 -110 23 -110 20 0 54 37 54 58 0 18 -35 63
-48 61 -4 0 -17 -4 -29 -9z"/>
<path d="M11136 7028 c-32 -45 -6 -98 48 -98 39 0 56 15 56 50 0 39 -26 70
-60 70 -18 0 -34 -8 -44 -22z"/>
<path d="M5105 8850 c-4 -6 -2 -16 3 -23 5 -7 22 -43 37 -82 31 -80 41 -95 62
-95 8 0 92 -30 186 -66 151 -58 515 -234 589 -286 14 -10 29 -18 32 -18 4 0
39 -21 79 -47 40 -27 80 -52 89 -58 118 -73 591 -406 618 -436 3 -3 23 -18 45
-35 44 -32 294 -224 310 -237 6 -5 71 -53 145 -109 374 -277 743 -492 1003
-584 398 -141 647 -166 951 -95 71 17 66 31 -9 31 -91 0 -217 15 -346 40 -111
22 -109 22 -269 74 -383 126 -736 344 -1333 825 -310 250 -293 237 -457 359
-142 106 -528 362 -545 362 -2 0 -34 17 -72 38 -317 179 -640 315 -978 412
-55 15 -107 31 -116 35 -10 3 -20 1 -24 -5z"/>
<path d="M5280 8433 c0 -17 100 -236 122 -269 21 -31 48 -46 178 -100 68 -28
199 -97 365 -192 98 -56 422 -273 525 -351 88 -67 300 -219 385 -277 33 -23
123 -84 200 -136 330 -224 666 -400 924 -484 100 -33 220 -61 306 -74 128 -18
311 -10 285 13 -3 2 -39 14 -80 26 -41 12 -84 26 -95 31 -11 5 -40 16 -65 24
-178 57 -435 178 -610 286 -8 5 -40 23 -70 41 -85 50 -209 133 -387 262 -225
163 -277 200 -292 212 -46 38 -299 229 -390 295 -281 204 -438 306 -621 406
-190 104 -248 132 -450 214 -173 70 -230 88 -230 73z"/>
<path d="M8190 7810 c-38 -38 -18 -90 35 -90 59 0 73 74 19 99 -32 14 -31 14
-54 -9z"/>
<path d="M8462 7818 c-7 -7 -12 -27 -12 -45 0 -27 5 -35 26 -44 56 -21 99 45
56 84 -22 20 -53 22 -70 5z"/>
<path d="M8732 7778 c-16 -16 -15 -53 2 -67 8 -7 27 -11 43 -9 51 6 41 88 -11
88 -12 0 -27 -5 -34 -12z"/>
<path d="M7914 7746 c-13 -52 13 -84 58 -73 55 14 36 97 -22 97 -23 0 -31 -5
-36 -24z"/>
<path d="M8992 7744 c-31 -22 -30 -69 3 -90 23 -15 27 -15 50 0 36 24 36 82
-1 96 -31 12 -25 13 -52 -6z"/>
<path d="M9232 7688 c-26 -26 -4 -98 29 -98 27 0 49 22 49 50 0 48 -48 78 -78
48z"/>
<path d="M7664 7623 c-9 -35 7 -58 41 -58 38 0 53 26 35 59 -19 37 -67 36 -76
-1z"/>
<path d="M9482 7624 c-37 -26 -24 -84 19 -84 23 0 49 27 49 50 0 18 -24 50
-38 50 -4 0 -18 -7 -30 -16z"/>
<path d="M9722 7568 c-13 -13 -16 -57 -4 -74 23 -34 82 -12 82 31 0 13 -10 31
-22 39 -27 19 -40 20 -56 4z"/>
<path d="M5775 7139 c-47 -28 -56 -30 -135 -27 -72 3 -85 1 -88 -14 -9 -49
387 -97 1253 -153 127 -8 243 -18 259 -21 22 -5 28 -4 24 7 -7 20 -179 149
-199 149 -130 0 -902 62 -989 80 -64 13 -70 12 -125 -21z"/>
</g>
</svg>
